<svg id="hand-decode" enable-background="new 0 0 300 300" height="512" viewBox="0 0 300 300" width="512" xmlns="http://www.w3.org/2000/svg"><g><circle cx="72.088" cy="44" r="4"/><circle cx="72.088" cy="60" r="4"/><circle cx="72.088" cy="76" r="4"/><circle cx="72.088" cy="92" r="4"/><circle cx="72.088" cy="108" r="4"/><circle cx="72.088" cy="124" r="4"/><circle cx="72.088" cy="140" r="4"/><path d="m262.2 144.777c-5.255-4.333-12.679-4.454-18.411-.832-18.191-1.956-30.27 6.326-43.034 15.133-1.656 1.144-3.4 2.308-5.127 3.469-2.96-4.084-7.69-6.664-13.056-6.664h-77.234c-14.463 0-28.059 5.629-38.285 15.855-.195.195-.371.41-.523.645l-14.439 22.16-17.994 10.348c-1.916 1.102-2.574 3.547-1.473 5.465 1.102 1.914 3.541 2.566 5.461 1.473l18.824-10.829c.547-.316 1.012-.758 1.357-1.285l14.732-22.609c8.682-8.531 20.148-13.223 32.338-13.223h77.234c4.588 0 7.385 3.402 8.039 6.566.947 4.566-2.041 8.832-7.992 11.41-2.637 1.141-5.65 1.723-8.959 1.723h-23.303c-7.934 0-14.387 6.453-14.387 14.387s6.455 14.391 14.389 14.391h21.744c11.492 0 22.576-4.824 30.41-13.238l43.771-47.02c2.928-3.141 7.787-3.664 10.824-1.152 1.621 1.336 2.607 3.215 2.777 5.281.172 2.074-.486 4.078-1.85 5.645l-47.006 54c-6.702 7.706-16.409 12.124-26.626 12.124h-66.613c-7.129 0-14.305 1.602-20.754 4.629-4.705 2.207-19.355 16.25-23.732 20.5-1.584 1.539-1.621 4.074-.082 5.656.783.809 1.826 1.215 2.869 1.215 1.004 0 2.01-.375 2.787-1.129 8.512-8.27 19.174-17.883 21.559-19 5.391-2.531 11.393-3.871 17.354-3.871h66.613c12.533 0 24.438-5.422 32.664-14.875l47.006-54c2.791-3.207 4.137-7.309 3.787-11.551-.351-4.238-2.359-8.07-5.659-10.797zm-65.543 48.891c-6.326 6.793-15.275 10.691-24.555 10.691h-21.744c-3.523 0-6.389-2.867-6.389-6.391s2.865-6.387 6.387-6.387h23.303c4.41 0 8.496-.801 12.141-2.383 10.658-4.618 13.581-12.596 12.812-19.016 2.284-1.508 4.526-3.029 6.686-4.519 10.37-7.153 18.993-12.998 30.317-13.842z"/><path d="m140.088 84c2.209 0 4-1.789 4-4v-32c0-2.211-1.791-4-4-4s-4 1.789-4 4v32c0 2.211 1.791 4 4 4z"/><path d="m116.088 96v32c0 2.211 1.791 4 4 4s4-1.789 4-4v-32c0-2.211-1.791-4-4-4s-4 1.789-4 4z"/><path d="m192.088 84c2.209 0 4-1.789 4-4v-32c0-2.211-1.791-4-4-4s-4 1.789-4 4v32c0 2.211 1.791 4 4 4z"/><path d="m168.088 96v32c0 2.211 1.791 4 4 4s4-1.789 4-4v-32c0-2.211-1.791-4-4-4s-4 1.789-4 4z"/><path d="m208.088 84c2.209 0 4-1.789 4-4v-32c0-2.211-1.791-4-4-4s-4 1.789-4 4v32c0 2.211 1.791 4 4 4z"/><path d="m104.088 132c2.209 0 4-1.789 4-4v-32c0-2.211-1.791-4-4-4s-4 1.789-4 4v32c0 2.211 1.791 4 4 4z"/><path d="m144.088 132h4c6.617 0 12-5.383 12-12v-16c0-6.617-5.383-12-12-12h-4c-6.617 0-12 5.383-12 12v16c0 6.617 5.383 12 12 12zm-4-28c0-2.207 1.795-4 4-4h4c2.205 0 4 1.793 4 4v16c0 2.207-1.795 4-4 4h-4c-2.205 0-4-1.793-4-4z"/><path d="m112.088 84h4c6.617 0 12-5.383 12-12v-16c0-6.617-5.383-12-12-12h-4c-6.617 0-12 5.383-12 12v16c0 6.617 5.383 12 12 12zm-4-28c0-2.207 1.795-4 4-4h4c2.205 0 4 1.793 4 4v16c0 2.207-1.795 4-4 4h-4c-2.205 0-4-1.793-4-4z"/><path d="m196.088 132h4c6.617 0 12-5.383 12-12v-16c0-6.617-5.383-12-12-12h-4c-6.617 0-12 5.383-12 12v16c0 6.617 5.383 12 12 12zm-4-28c0-2.207 1.795-4 4-4h4c2.205 0 4 1.793 4 4v16c0 2.207-1.795 4-4 4h-4c-2.205 0-4-1.793-4-4z"/><path d="m164.088 84h4c6.617 0 12-5.383 12-12v-16c0-6.617-5.383-12-12-12h-4c-6.617 0-12 5.383-12 12v16c0 6.617 5.383 12 12 12zm-4-28c0-2.207 1.795-4 4-4h4c2.205 0 4 1.793 4 4v16c0 2.207-1.795 4-4 4h-4c-2.205 0-4-1.793-4-4z"/></g></svg>