<?xml version="1.0" encoding="iso-8859-1"?>
<!-- Generator: Adobe Illustrator 19.0.0, SVG Export Plug-In . SVG Version: 6.00 Build 0)  -->
<svg version="1.1" id="Capa_1" xmlns="http://www.w3.org/2000/svg" xmlns:xlink="http://www.w3.org/1999/xlink" x="0px" y="0px"
	 viewBox="0 0 512 512" style="enable-background:new 0 0 512 512;" xml:space="preserve">
<g>
	<g>
		<path d="M389.06,60.988C382.385,26.295,351.815,0,315.204,0c-41.479,0-75.225,33.746-75.225,75.224v24.373
			c-14.786,6.064-28.426,15.081-40.134,26.789c-32.936,32.935-44.125,80.839-29.812,124.491l-30.289,30.289l-3.446,25.219
			l-25.219,3.446l-26.781,26.782l-3.446,25.219l-25.219,3.446l-41.396,41.397l46.731,46.731h63.196l124.202-124.202
			c23.358,7.638,48.286,8.04,71.674,1.327v3.974l15.396,20.269l-15.396,20.269v37.875l15.396,20.269l-15.396,20.269V512h66.088
			l44.688-44.687V291.67c40.987-20.746,66.948-62.531,66.948-109.109C497.765,119.712,450.124,67.789,389.06,60.988z
			 M375.429,144.934c7.619,0,13.818,6.198,13.818,13.818s-6.199,13.818-13.818,13.818c-7.62,0-13.819-6.199-13.819-13.818
			C361.61,151.133,367.809,144.934,375.429,144.934z M269.98,75.224C269.98,50.287,290.268,30,315.205,30
			c20.128,0,37.221,13.221,43.067,31.433c-24.212,3.414-46.168,13.938-63.684,29.392c-8.299-0.567-16.535-0.296-24.608,0.776V75.224
			z M320.04,298.885c-22.335,8.767-47.251,8.526-69.635-0.92l-9.301-3.925L111.738,423.406H73.394l-16.731-16.731l13.041-13.041
			l37.787-5.164l5.163-37.787l12.496-12.496l37.787-5.164l5.163-37.787l37.101-37.1l-3.926-9.3
			c-14.685-34.797-6.919-74.535,19.783-101.238c13.357-13.357,30.05-22.077,48.03-25.465
			c-10.175,17.837-15.997,38.464-15.997,60.427c0,46.578,25.961,88.363,66.949,109.109V298.885z M410.169,268.135l-9.353,3.801
			v182.951L373.703,482h-23.662v-18.443l23.067-30.371l-23.067-30.371v-17.671l23.067-30.371l-23.067-30.371v-52.467l-9.353-3.801
			c-34.988-14.221-57.597-47.811-57.597-85.574c0-45.808,33.531-83.925,77.337-91.112v26.13
			c-16.797,6.138-28.819,22.277-28.819,41.172c0,24.162,19.657,43.818,43.819,43.818c24.161,0,43.818-19.657,43.818-43.818
			c0-18.895-12.022-35.034-28.818-41.172V91.449c43.805,7.187,77.336,45.305,77.336,91.112
			C467.765,220.325,445.157,253.915,410.169,268.135z"/>
	</g>
</g>
<g>
</g>
<g>
</g>
<g>
</g>
<g>
</g>
<g>
</g>
<g>
</g>
<g>
</g>
<g>
</g>
<g>
</g>
<g>
</g>
<g>
</g>
<g>
</g>
<g>
</g>
<g>
</g>
<g>
</g>
</svg>
